<svg width="1070" height="120" viewBox="0 0 1070 120" fill="none" xmlns="http://www.w3.org/2000/svg">
<path d="M242.47 95.994V0H261.212V95.994H242.47Z" fill="#FF9C2E"/>
<path d="M0 119.995V24.001H38.559C57.3006 24.001 68.2228 34.5148 68.2228 50.9654C68.2228 61.6187 61.2103 68.4917 56.3593 70.7828C62.1566 73.4772 69.5725 79.5484 69.5725 92.3533C69.5725 110.283 57.3055 119.995 40.1826 119.995H0ZM37.0748 40.7155H18.7366V62.8289H37.0748C45.0286 62.8289 49.4812 58.3813 49.4812 51.7722C49.4812 45.1631 45.0336 40.7155 37.0748 40.7155ZM38.29 79.6829H18.7416V103.275H38.29C46.7818 103.275 50.8309 97.8816 50.8309 91.412C50.8309 84.9423 46.7868 79.6829 38.29 79.6829Z" fill="black"/>
<path d="M119.756 80.6242V119.995H101.149V80.6242L72.2968 23.996H92.6571L110.587 62.6895L128.248 23.996H148.608L119.756 80.6242Z" fill="black"/>
<path d="M158.449 119.995V24.001H197.008C215.75 24.001 226.672 34.5148 226.672 50.9654C226.672 61.6187 219.66 68.4917 214.809 70.7828C220.606 73.4772 228.022 79.5484 228.022 92.3533C228.022 110.283 215.755 119.995 198.632 119.995H158.449ZM195.524 40.7155H177.186V62.8289H195.524C203.478 62.8289 207.931 58.3813 207.931 51.7722C207.931 45.1631 203.483 40.7155 195.524 40.7155ZM196.739 79.6829H177.191V103.275H196.739C205.231 103.275 209.28 97.8816 209.28 91.412C209.28 84.9423 205.236 79.6829 196.739 79.6829Z" fill="black"/>
<path d="M321.506 40.7205V120H302.764V40.7205H277.687V24.001H346.583V40.7205H321.506Z" fill="black"/>
<path d="M453.229 109.322H443.059L418.538 66.495L401.588 86.835V109.322H393V28.866H401.588V75.083L439.104 28.866H449.613L424.301 59.941L453.229 109.322Z" fill="black"/>
<path d="M522.542 109.322H513.389L506.948 91.129H471.805L465.364 109.322H456.211L485.817 28.866H493.049L522.542 109.322ZM504.462 83.671L489.546 41.183L474.404 83.671H504.462Z" fill="black"/>
<path d="M580.322 109.322H530.376V101.186L570.604 36.55H531.958V28.866H580.322V36.098L539.755 101.638H580.322V109.322Z" fill="black"/>
<path d="M654.412 109.322H645.259L638.818 91.129H603.675L597.234 109.322H588.081L617.687 28.866H624.919L654.412 109.322ZM636.332 83.671L621.416 41.183L606.274 83.671H636.332Z" fill="black"/>
<path d="M727.673 109.322H717.503L692.982 66.495L676.032 86.835V109.322H667.444V28.866H676.032V75.083L713.548 28.866H724.057L698.745 59.941L727.673 109.322Z" fill="black"/>
<path d="M796.308 109.322H787.72V72.597H749.526V109.322H740.938V28.866H749.526V64.913H787.72V28.866H796.308V109.322Z" fill="black"/>
<path d="M868.096 87.174C868.096 101.299 857.022 110 840.298 110C828.207 110 820.297 106.949 812.726 99.378L818.602 93.502C825.269 100.169 831.484 102.316 840.524 102.316C852.276 102.316 859.508 96.779 859.508 87.4C859.508 83.219 858.265 79.603 855.666 77.343C853.067 75.083 851.033 74.405 845.157 73.501L835.778 72.032C829.45 71.015 824.478 68.981 820.975 65.93C816.907 62.314 814.873 57.342 814.873 50.901C814.873 37.228 824.704 28.188 840.637 28.188C850.92 28.188 857.7 30.787 864.593 37.002L859.056 42.539C854.084 38.019 848.773 35.646 840.298 35.646C829.563 35.646 823.348 41.635 823.348 50.562C823.348 54.517 824.478 57.681 826.964 59.828C829.45 61.975 833.631 63.557 837.812 64.235L846.626 65.591C854.197 66.721 857.926 68.303 861.316 71.241C865.723 74.97 868.096 80.507 868.096 87.174Z" fill="black"/>
<path d="M932.946 36.55H909.668V109.322H901.08V36.55H877.802V28.866H932.946V36.55Z" fill="black"/>
<path d="M997.275 109.322H988.122L981.681 91.129H946.538L940.097 109.322H930.944L960.55 28.866H967.782L997.275 109.322ZM979.195 83.671L964.279 41.183L949.137 83.671H979.195Z" fill="black"/>
<path d="M1069.74 109.322H1061.61L1018.89 44.799V109.322H1010.31V28.866H1018.44L1061.16 93.163V28.866H1069.74V109.322Z" fill="black"/>
</svg>
